<svg version="1.1" id="Layer_1" xmlns="http://www.w3.org/2000/svg" xmlns:xlink="http://www.w3.org/1999/xlink" x="0px" y="0px"
	 width="100%" viewBox="0 0 60 60" enable-background="new 0 0 60 60" xml:space="preserve">
<path fill="#000000" opacity="1.000000" stroke="none" 
	d="
M1.000000,27.000000 
	C1.000000,18.370615 1.000000,9.741229 1.000000,1.055922 
	C20.876562,1.055922 40.753307,1.055922 61.000000,1.055922 
	C61.000000,6.347350 61.000000,11.703221 60.726868,17.331879 
	C59.808144,16.460419 59.084137,15.352858 58.528992,14.166292 
	C52.441216,1.154251 35.313461,-0.980956 26.437719,10.245444 
	C21.750362,16.174200 22.852367,23.178915 23.459002,29.930088 
	C23.536032,30.787325 26.226149,32.007065 27.662901,31.951595 
	C28.767757,31.908936 30.487558,30.267447 30.732927,29.087250 
	C31.266878,26.519001 30.909670,23.780542 31.139168,21.130920 
	C31.683821,14.842776 35.594936,11.204760 41.562351,11.266226 
	C47.127148,11.323544 50.721504,15.093567 50.915062,21.386337 
	C51.089096,27.044205 51.040607,32.709518 51.050495,38.371616 
	C51.056896,42.035755 52.752163,43.968742 56.504360,43.945690 
	C58.002739,43.936481 59.501442,43.980312 61.000000,44.000000 
	C61.000000,49.632397 61.000000,55.264793 61.000000,60.948593 
	C41.000084,60.948593 21.000061,60.948593 1.000000,60.948593 
	C1.000000,59.312103 1.000000,57.655521 1.360765,55.548500 
	C2.529327,55.638065 3.272067,56.352219 4.157961,56.683155 
	C6.240603,57.461151 8.434599,58.694386 10.503548,58.555119 
	C12.818752,58.399269 14.916001,57.348682 15.187970,53.914745 
	C15.550761,49.334049 19.235634,47.192287 23.813765,48.495449 
	C27.544846,49.557495 30.933592,48.810989 32.406094,45.624535 
	C33.556400,43.135296 33.935627,38.940376 32.552879,37.014256 
	C31.204363,35.135815 26.943468,34.072411 24.395115,34.630966 
	C20.601410,35.462479 18.757296,34.169556 17.223742,31.347507 
	C16.364098,29.765587 15.909576,27.967312 15.093912,26.356987 
	C12.607798,21.448780 8.555079,20.904713 4.672568,24.741150 
	C3.676717,25.725180 2.236221,26.259226 1.000000,27.000000 
z"/>
<path fill="#101820" opacity="1.000000" stroke="none" 
	d="
M61.000000,43.531349 
	C59.501442,43.980312 58.002739,43.936481 56.504360,43.945690 
	C52.752163,43.968742 51.056896,42.035755 51.050495,38.371616 
	C51.040607,32.709518 51.089096,27.044205 50.915062,21.386337 
	C50.721504,15.093567 47.127148,11.323544 41.562351,11.266226 
	C35.594936,11.204760 31.683821,14.842776 31.139168,21.130920 
	C30.909670,23.780542 31.266878,26.519001 30.732927,29.087250 
	C30.487558,30.267447 28.767757,31.908936 27.662901,31.951595 
	C26.226149,32.007065 23.536032,30.787325 23.459002,29.930088 
	C22.852367,23.178915 21.750362,16.174200 26.437719,10.245444 
	C35.313461,-0.980956 52.441216,1.154251 58.528992,14.166292 
	C59.084137,15.352858 59.808144,16.460419 60.726868,17.802334 
	C61.000000,26.354233 61.000000,34.708466 61.000000,43.531349 
z"/>
<path fill="#005480" opacity="1.000000" stroke="none" 
	d="
M1.000000,27.428463 
	C2.236221,26.259226 3.676717,25.725180 4.672568,24.741150 
	C8.555079,20.904713 12.607798,21.448780 15.093912,26.356987 
	C15.909576,27.967312 16.364098,29.765587 17.223742,31.347507 
	C18.757296,34.169556 20.601410,35.462479 24.395115,34.630966 
	C26.943468,34.072411 31.204363,35.135815 32.552879,37.014256 
	C33.935627,38.940376 33.556400,43.135296 32.406094,45.624535 
	C30.933592,48.810989 27.544846,49.557495 23.813765,48.495449 
	C19.235634,47.192287 15.550761,49.334049 15.187970,53.914745 
	C14.916001,57.348682 12.818752,58.399269 10.503548,58.555119 
	C8.434599,58.694386 6.240603,57.461151 4.157961,56.683155 
	C3.272067,56.352219 2.529327,55.638065 1.360765,55.049034 
	C1.000000,53.285641 1.000000,51.571285 1.358611,49.393990 
	C4.803769,47.641796 6.623144,43.488457 11.234700,45.372601 
	C12.646440,45.949390 15.507170,44.714855 16.739004,43.403202 
	C17.598818,42.487686 17.508768,39.320061 16.598951,38.429882 
	C15.319442,37.177994 12.896132,37.070786 10.944930,36.536228 
	C8.751136,35.935219 6.505008,35.505596 4.347148,34.800858 
	C3.161813,34.413742 2.111302,33.613804 1.000000,33.000000 
	C1.000000,31.285643 1.000000,29.571283 1.000000,27.428463 
z"/>
<path fill="#000000" opacity="1.000000" stroke="none" 
	d="
M1.000000,33.466862 
	C2.111302,33.613804 3.161813,34.413742 4.347148,34.800858 
	C6.505008,35.505596 8.751136,35.935219 10.944930,36.536228 
	C12.896132,37.070786 15.319442,37.177994 16.598951,38.429882 
	C17.508768,39.320061 17.598818,42.487686 16.739004,43.403202 
	C15.507170,44.714855 12.646440,45.949390 11.234700,45.372601 
	C6.623144,43.488457 4.803769,47.641796 1.358611,48.965523 
	C1.000000,43.977909 1.000000,38.955814 1.000000,33.466862 
z"/>
</svg>